<svg width="220" height="220" viewBox="0 0 220 220" fill="none" xmlns="http://www.w3.org/2000/svg">
<path d="M198.859 38.1048C198.859 38.1048 198.859 38.1907 198.859 38.2337L148.843 203.182C148.086 205.861 146.528 208.245 144.377 210.013C142.227 211.781 139.587 212.849 136.812 213.074C136.416 213.108 136.021 213.125 135.626 213.125C133.025 213.133 130.477 212.397 128.281 211.004C126.085 209.611 124.334 207.618 123.234 205.262L91.9524 141.067C91.6394 140.423 91.5349 139.698 91.6536 138.993C91.7722 138.287 92.108 137.636 92.6141 137.131L142.389 87.3556C143.624 86.0558 144.302 84.325 144.279 82.5323C144.256 80.7395 143.534 79.0267 142.266 77.7589C140.999 76.4912 139.286 75.7688 137.493 75.7458C135.7 75.7229 133.969 76.4012 132.67 77.636L82.8688 127.411C82.3632 127.917 81.7123 128.253 81.0067 128.372C80.3012 128.49 79.5762 128.386 78.9329 128.073L14.6774 96.8001C12.1648 95.5947 10.0777 93.6542 8.69288 91.2358C7.30801 88.8174 6.69071 86.0352 6.92276 83.2581C7.15481 80.4809 8.22527 77.8398 9.99227 75.6848C11.7593 73.5297 14.1394 71.9625 16.8173 71.1907L181.766 21.1751H181.895C184.243 20.5153 186.725 20.4922 189.085 21.1081C191.446 21.724 193.6 22.9568 195.327 24.68C197.053 26.4032 198.29 28.5548 198.911 30.9139C199.532 33.2731 199.514 35.7549 198.859 38.1048Z" fill="#9AA3D3"/>
</svg>
