<svg width="20" height="20" viewBox="0 0 20 20" fill="none" xmlns="http://www.w3.org/2000/svg">
<circle cx="10" cy="10" r="9.5" stroke="#4366A2"/>
<path d="M8.664 12.536C8.52533 11.944 8.472 11.4613 8.504 11.088C8.54133 10.7093 8.66667 10.3893 8.88 10.128C9.09333 9.86667 9.4 9.608 9.8 9.352C10.3493 9 10.7147 8.70133 10.896 8.456C11.0773 8.21067 11.168 7.93867 11.168 7.64C11.168 7.16533 11 6.81067 10.664 6.576C10.328 6.336 9.856 6.216 9.248 6.216C8.81067 6.216 8.416 6.27733 8.064 6.4C7.712 6.52267 7.38933 6.69333 7.096 6.912L6.632 5.448C6.808 5.29333 7.04267 5.14933 7.336 5.016C7.62933 4.87733 7.968 4.768 8.352 4.688C8.736 4.60267 9.14933 4.56 9.592 4.56C10.2747 4.56 10.8853 4.672 11.424 4.896C11.9627 5.11467 12.3867 5.432 12.696 5.848C13.0107 6.25867 13.168 6.74933 13.168 7.32C13.168 7.64533 13.1093 7.952 12.992 8.24C12.88 8.52267 12.6853 8.80533 12.408 9.088C12.1307 9.37067 11.752 9.672 11.272 9.992C10.9307 10.216 10.68 10.432 10.52 10.64C10.36 10.8427 10.2693 11.0907 10.248 11.384C10.2267 11.672 10.2533 12.056 10.328 12.536H8.664ZM9.568 16.24C9.22667 16.24 8.93333 16.1307 8.688 15.912C8.44267 15.6933 8.32 15.408 8.32 15.056C8.32 14.816 8.376 14.608 8.488 14.432C8.6 14.2507 8.74933 14.112 8.936 14.016C9.128 13.9147 9.33867 13.864 9.568 13.864C9.91467 13.864 10.2107 13.9733 10.456 14.192C10.7013 14.4053 10.824 14.6933 10.824 15.056C10.824 15.2907 10.7653 15.4987 10.648 15.68C10.536 15.856 10.384 15.992 10.192 16.088C10.0053 16.1893 9.79733 16.24 9.568 16.24Z" fill="#4366A2"/>
</svg>
