<svg width="119" height="241" viewBox="0 0 119 241" fill="none" xmlns="http://www.w3.org/2000/svg">
<path d="M10.2336 209.972H9.26954V202.355H4.32341V209.972H3.35938V201.453H10.2476V209.972H10.2336Z" fill="#4366A2"/>
<path d="M19.6925 204.172C19.6925 205.088 19.3432 205.796 18.6586 206.295C18.0298 206.739 17.2614 206.975 16.3252 206.975H14.2434V209.986H13.2793V201.466H16.4929C17.4151 201.466 18.1695 201.688 18.7424 202.118C19.3851 202.604 19.6925 203.284 19.6925 204.172ZM18.7145 204.214C18.7145 203.575 18.4769 203.104 18.0159 202.771C17.6107 202.493 17.0797 202.34 16.4091 202.34H14.2434V206.087H16.3672C17.0099 206.087 17.5548 205.934 17.9879 205.643C18.4769 205.296 18.7284 204.824 18.7284 204.2L18.7145 204.214Z" fill="#4366A2"/>
<path d="M30.5359 205.698C30.5359 206.947 30.1167 208.002 29.2784 208.848C28.4401 209.694 27.4061 210.111 26.1487 210.111C24.8912 210.111 23.8572 209.694 23.0189 208.862C22.1945 208.016 21.7754 206.975 21.7754 205.726C21.7754 204.477 22.1945 203.423 23.0189 202.59C23.8712 201.744 24.9051 201.313 26.1626 201.313C27.4201 201.313 28.454 201.744 29.2784 202.576C30.1167 203.423 30.5219 204.449 30.5219 205.698H30.5359ZM29.5299 205.726C29.5299 204.741 29.2085 203.908 28.5798 203.228C27.9371 202.535 27.1267 202.188 26.1487 202.188C25.1706 202.188 24.3602 202.535 23.7315 203.214C23.1027 203.88 22.7814 204.713 22.7814 205.698C22.7814 206.683 23.1027 207.516 23.7315 208.182C24.3742 208.876 25.1846 209.223 26.1766 209.223C27.1686 209.223 27.965 208.876 28.6077 208.182C29.2365 207.516 29.5439 206.697 29.5439 205.712L29.5299 205.726Z" fill="#4366A2"/>
<path d="M40.3999 209.972H39.4499V202.993L33.9169 209.972H33.1484V201.453H34.0986V208.28L39.5058 201.453H40.4139V209.972H40.3999Z" fill="#4366A2"/>
<path d="M48.867 207.641C48.867 208.404 48.5597 209.029 47.9449 209.473C47.386 209.903 46.7154 210.111 45.919 210.111C44.5776 210.111 43.5158 209.598 42.6914 208.585L43.404 207.974C44.0746 208.807 44.9269 209.237 45.9469 209.237C46.4778 209.237 46.9249 209.098 47.2882 208.848C47.6934 208.557 47.889 208.154 47.889 207.641C47.889 207.086 47.6375 206.67 47.1205 206.406C46.7153 206.198 46.2124 206.087 45.5976 206.087H44.7173V205.254H45.6256C46.1705 205.254 46.6455 205.13 47.0088 204.894C47.4419 204.602 47.6655 204.2 47.6655 203.673C47.6655 203.201 47.4698 202.826 47.0926 202.535C46.7433 202.285 46.3381 202.174 45.8351 202.174C44.9689 202.174 44.2283 202.576 43.6136 203.395L42.901 202.882C43.6555 201.827 44.6475 201.3 45.8491 201.3C46.6036 201.3 47.2323 201.494 47.7633 201.869C48.3501 202.299 48.6435 202.868 48.6435 203.589C48.6435 204.547 48.1405 205.227 47.1485 205.601C48.2942 205.976 48.881 206.656 48.881 207.641H48.867Z" fill="#4366A2"/>
<path d="M58.395 207.641C58.395 208.446 58.0597 209.056 57.403 209.459C56.8581 209.806 56.1455 209.986 55.2792 209.986H51.4648V201.466H55.1115C55.866 201.466 56.5088 201.619 57.0118 201.952C57.6126 202.327 57.906 202.882 57.906 203.589C57.906 204.533 57.4588 205.185 56.5507 205.574C57.7802 205.934 58.395 206.628 58.395 207.641ZM56.9419 203.728C56.9419 203.242 56.7323 202.882 56.3271 202.632C55.9918 202.424 55.5726 202.327 55.0417 202.327H52.4289V205.254H54.9718C55.5167 205.254 55.9778 205.143 56.3271 204.908C56.7323 204.644 56.9419 204.241 56.9419 203.714V203.728ZM57.4169 207.586C57.4169 206.6 56.6625 206.115 55.1395 206.115H52.4289V209.126H55.3072C55.88 209.126 56.3551 209.015 56.7323 208.793C57.1794 208.529 57.4169 208.127 57.4169 207.586Z" fill="#4366A2"/>
<path d="M69.2801 205.698C69.2801 206.947 68.8609 208.002 68.0226 208.848C67.1842 209.694 66.1503 210.111 64.8928 210.111C63.6353 210.111 62.6014 209.694 61.7631 208.862C60.9387 208.016 60.5195 206.975 60.5195 205.726C60.5195 204.477 60.9387 203.423 61.7631 202.59C62.6154 201.744 63.6493 201.313 64.9068 201.313C66.1643 201.313 67.1982 201.744 68.0226 202.576C68.8609 203.423 69.2661 204.449 69.2661 205.698H69.2801ZM68.2741 205.726C68.2741 204.741 67.9527 203.908 67.324 203.228C66.6813 202.535 65.8708 202.188 64.8928 202.188C63.9148 202.188 63.1044 202.535 62.4757 203.214C61.8469 203.88 61.5255 204.713 61.5255 205.698C61.5255 206.683 61.8469 207.516 62.4757 208.182C63.1184 208.876 63.9288 209.223 64.9208 209.223C65.9128 209.223 66.7092 208.876 67.3519 208.182C67.9806 207.516 68.288 206.697 68.288 205.712L68.2741 205.726Z" fill="#4366A2"/>
<path d="M79.7163 211.637H78.8082V209.972H71.9199V211.637H71.0117V209.056H71.2632C71.7103 209.015 72.0038 208.723 72.1295 208.21C72.1854 207.96 72.2273 207.516 72.2413 206.878L72.367 201.466H78.8082V209.07H79.7163V211.651V211.637ZM77.8441 209.056V202.354H73.373L73.2612 206.253C73.2193 207.558 73.0377 208.487 72.7163 209.07H77.8441V209.056Z" fill="#4366A2"/>
<path d="M89.3147 208.626C88.3227 209.625 87.177 210.125 85.8776 210.125C84.5782 210.125 83.6141 209.695 82.7898 208.862C81.9794 208.03 81.5742 206.975 81.5742 205.74C81.5742 204.505 81.9794 203.437 82.8038 202.604C83.6281 201.758 84.662 201.328 85.9195 201.328C87.177 201.328 88.2948 201.772 89.2589 202.674L88.6021 203.381C87.7778 202.604 86.8696 202.216 85.9055 202.216C84.9415 202.216 84.145 202.563 83.5163 203.242C82.8875 203.909 82.5802 204.741 82.5802 205.726C82.5802 206.711 82.8875 207.53 83.5163 208.224C84.145 208.918 84.9415 209.265 85.9055 209.265C86.8696 209.265 87.8057 208.848 88.672 208.03L89.3147 208.654V208.626Z" fill="#4366A2"/>
<path d="M97.922 202.341H95.0437V209.972H94.0657V202.341H91.1875V201.453H97.922V202.341Z" fill="#4366A2"/>
<path d="M107.2 207.641C107.2 208.446 106.864 209.056 106.208 209.459C105.663 209.806 104.95 209.986 104.084 209.986H100.27V201.466H103.916C104.671 201.466 105.313 201.619 105.816 201.952C106.417 202.327 106.711 202.882 106.711 203.589C106.711 204.533 106.263 205.185 105.355 205.574C106.585 205.934 107.2 206.628 107.2 207.641ZM105.747 203.728C105.747 203.242 105.537 202.882 105.132 202.632C104.796 202.424 104.377 202.327 103.846 202.327H101.234V205.254H103.776C104.321 205.254 104.782 205.143 105.132 204.908C105.537 204.644 105.747 204.241 105.747 203.714V203.728ZM106.222 207.586C106.222 206.6 105.467 206.115 103.944 206.115H101.234V209.126H104.112C104.685 209.126 105.16 209.015 105.537 208.793C105.984 208.529 106.222 208.127 106.222 207.586Z" fill="#4366A2"/>
<path d="M118.085 205.698C118.085 206.947 117.666 208.002 116.827 208.848C115.989 209.694 114.955 210.111 113.697 210.111C112.44 210.111 111.406 209.694 110.568 208.862C109.743 208.016 109.324 206.975 109.324 205.726C109.324 204.477 109.743 203.423 110.568 202.59C111.42 201.744 112.454 201.313 113.711 201.313C114.969 201.313 116.003 201.744 116.827 202.576C117.666 203.423 118.071 204.449 118.071 205.698H118.085ZM117.079 205.726C117.079 204.741 116.757 203.908 116.129 203.228C115.486 202.535 114.676 202.188 113.697 202.188C112.719 202.188 111.909 202.535 111.28 203.214C110.652 203.88 110.33 204.713 110.33 205.698C110.33 206.683 110.652 207.516 111.28 208.182C111.923 208.876 112.733 209.223 113.725 209.223C114.717 209.223 115.514 208.876 116.157 208.182C116.785 207.516 117.093 206.697 117.093 205.712L117.079 205.726Z" fill="#4366A2"/>
<path d="M24.583 224.57H23.619V217.673L20.4892 222.238H20.4334L17.3036 217.687V224.57H16.3535V216.05H17.3316L20.4613 220.698L23.591 216.05H24.5691V224.57H24.583Z" fill="#4366A2"/>
<path d="M35.9558 220.296C35.9558 221.545 35.5366 222.599 34.6983 223.446C33.86 224.292 32.826 224.708 31.5685 224.708C30.3111 224.708 29.2771 224.292 28.4388 223.46C27.6145 222.613 27.1953 221.572 27.1953 220.324C27.1953 219.075 27.6145 218.02 28.4388 217.188C29.2911 216.341 30.325 215.911 31.5825 215.911C32.84 215.911 33.874 216.341 34.6983 217.174C35.5366 218.02 35.9418 219.047 35.9418 220.296H35.9558ZM34.9498 220.324C34.9498 219.338 34.6285 218.506 33.9997 217.826C33.357 217.132 32.5466 216.785 31.5685 216.785C30.5905 216.785 29.7801 217.132 29.1514 217.812C28.5227 218.478 28.2013 219.311 28.2013 220.296C28.2013 221.281 28.5227 222.114 29.1514 222.78C29.7941 223.473 30.6045 223.82 31.5965 223.82C32.5885 223.82 33.3849 223.473 34.0276 222.78C34.6564 222.114 34.9638 221.295 34.9638 220.31L34.9498 220.324Z" fill="#4366A2"/>
<path d="M46.3941 226.234H45.4859V224.569H38.5977V226.234H37.6895V223.654H37.927C38.3741 223.612 38.6675 223.321 38.7933 222.807C38.8491 222.557 38.891 222.113 38.905 221.475L39.0308 216.063H45.4719V223.667H46.3801V226.248L46.3941 226.234ZM44.5218 223.654V216.952H40.0507L39.939 220.851C39.8971 222.155 39.7154 223.085 39.394 223.667H44.5218V223.654Z" fill="#4366A2"/>
<path d="M55.9788 216.05L52.4439 222.308C51.5776 223.834 50.7812 224.611 50.0546 224.611C49.8171 224.611 49.4678 224.528 49.0067 224.348V223.362C49.2722 223.57 49.5656 223.695 49.8451 223.709C50.1944 223.709 50.5157 223.529 50.8511 223.099C51.0048 222.891 51.2143 222.544 51.4938 222.03L47.875 216.064H49.0486L52.0666 221.114L54.861 216.064H55.9928L55.9788 216.05Z" fill="#4366A2"/>
<path d="M64.935 224.569H63.9709V216.952H59.4439L59.2064 221.461C59.1645 222.391 59.0807 223.057 58.9968 223.487C58.8292 224.278 58.2982 224.722 57.418 224.819V223.889C57.7952 223.82 58.0328 223.584 58.1306 223.196C58.1306 223.126 58.1725 222.752 58.1865 222.086L58.4379 216.063H64.935V224.583V224.569Z" fill="#4366A2"/>
<path d="M74.3663 221.85C74.3663 222.738 74.045 223.418 73.4162 223.904C72.8434 224.348 72.0749 224.556 71.1667 224.556H67.9531V216.036H68.9172V219.047H70.999C71.9491 219.047 72.7176 219.283 73.3324 219.727C74.017 220.227 74.3663 220.934 74.3663 221.85ZM73.3883 221.808C73.3883 221.184 73.1368 220.712 72.6478 220.379C72.2146 220.074 71.6837 219.935 71.027 219.935H68.9032V223.682H71.0689C71.7396 223.682 72.2705 223.529 72.6757 223.252C73.1368 222.919 73.3743 222.447 73.3743 221.808H73.3883Z" fill="#4366A2"/>
<path d="M83.5872 224.57H82.6231V220.74H77.6769V224.57H76.7129V216.05H77.6769V219.838H82.6231V216.05H83.5872V224.57Z" fill="#4366A2"/>
<path d="M93.0459 221.85C93.0459 222.738 92.7246 223.418 92.0959 223.904C91.523 224.348 90.7546 224.556 89.8464 224.556H86.6328V216.036H87.5969V219.047H89.6787C90.6288 219.047 91.3973 219.283 92.012 219.727C92.6967 220.227 93.0459 220.934 93.0459 221.85ZM92.0679 221.808C92.0679 221.184 91.8164 220.712 91.3274 220.379C90.8943 220.074 90.3633 219.935 89.7066 219.935H87.5829V223.682H89.7486C90.4192 223.682 90.9502 223.529 91.3554 223.252C91.8165 222.919 92.054 222.447 92.054 221.808H92.0679ZM95.2675 224.556H94.3035V216.036H95.2675V224.556Z" fill="#4366A2"/>
<path d="M105.328 224.57H104.183L101.444 220.906L98.7056 224.57H97.5879L100.885 220.226L97.7137 216.05H98.8594L101.5 219.533L104.113 216.05H105.245L102.073 220.213L105.37 224.57H105.328Z" fill="#4366A2"/>
<path d="M43.6402 240.832H42.732V239.167H35.8438V240.832H34.9355V238.251H35.1731C35.6202 238.21 35.9136 237.918 36.0394 237.405C36.0952 237.155 36.1372 236.711 36.1512 236.073L36.2769 230.661H42.718V238.265H43.6262V240.846L43.6402 240.832ZM41.7679 238.251V231.549H37.2968L37.1851 235.448C37.1432 236.753 36.9615 237.682 36.6401 238.265H41.7679V238.251Z" fill="#4366A2"/>
<path d="M54.2605 234.893C54.2605 236.142 53.8414 237.196 53.003 238.043C52.1647 238.889 51.1308 239.306 49.8733 239.306C48.6158 239.306 47.5819 238.889 46.7435 238.057C45.9192 237.21 45.5 236.17 45.5 234.921C45.5 233.672 45.9192 232.617 46.7435 231.785C47.5958 230.938 48.6298 230.508 49.8873 230.508C51.1447 230.508 52.1787 230.938 53.003 231.771C53.8414 232.617 54.2465 233.644 54.2465 234.893H54.2605ZM53.2545 234.921C53.2545 233.936 52.9332 233.103 52.3044 232.423C51.6617 231.729 50.8513 231.382 49.8733 231.382C48.8952 231.382 48.0849 231.729 47.4561 232.409C46.8274 233.075 46.506 233.908 46.506 234.893C46.506 235.878 46.8274 236.711 47.4561 237.377C48.0988 238.071 48.9092 238.417 49.9012 238.417C50.8933 238.417 51.6897 238.071 52.3324 237.377C52.9611 236.711 53.2685 235.892 53.2685 234.907L53.2545 234.921Z" fill="#4366A2"/>
<path d="M65.089 239.167H64.1249V232.27L60.9951 236.836H60.9392L57.8095 232.284V239.167H56.8594V230.647H57.8374L60.9672 235.295L64.0969 230.647H65.075V239.167H65.089Z" fill="#4366A2"/>
<path d="M76.448 234.893C76.448 236.142 76.0288 237.196 75.1905 238.043C74.3522 238.889 73.3183 239.306 72.0608 239.306C70.8033 239.306 69.7694 238.889 68.931 238.057C68.1067 237.21 67.6875 236.17 67.6875 234.921C67.6875 233.672 68.1067 232.617 68.931 231.785C69.7833 230.938 70.8173 230.508 72.0748 230.508C73.3322 230.508 74.3661 230.938 75.1905 231.771C76.0288 232.617 76.434 233.644 76.434 234.893H76.448ZM75.442 234.921C75.442 233.936 75.1206 233.103 74.4919 232.423C73.8492 231.729 73.0388 231.382 72.0608 231.382C71.0827 231.382 70.2723 231.729 69.6436 232.409C69.0148 233.075 68.6935 233.908 68.6935 234.893C68.6935 235.878 69.0148 236.711 69.6436 237.377C70.2863 238.071 71.0967 238.417 72.0887 238.417C73.0807 238.417 73.8772 238.071 74.5199 237.377C75.1486 236.711 75.456 235.892 75.456 234.907L75.442 234.921Z" fill="#4366A2"/>
<path d="M85.9907 236.822C85.9907 237.627 85.6553 238.237 84.9986 238.639C84.4537 238.986 83.7412 239.167 82.8749 239.167H79.0605V230.647H82.7073C83.4618 230.647 84.1045 230.8 84.6075 231.133C85.2083 231.507 85.5017 232.062 85.5017 232.77C85.5017 233.714 85.0545 234.366 84.1464 234.754C85.3759 235.115 85.9907 235.809 85.9907 236.822ZM84.5376 232.909C84.5376 232.423 84.328 232.062 83.9228 231.813C83.5875 231.604 83.1683 231.507 82.6374 231.507H80.0246V234.435H82.5675C83.1124 234.435 83.5735 234.324 83.9228 234.088C84.328 233.825 84.5376 233.422 84.5376 232.895V232.909ZM85.0126 236.766C85.0126 235.781 84.2581 235.295 82.7352 235.295H80.0246V238.306H82.9028C83.4757 238.306 83.9508 238.195 84.328 237.973C84.7751 237.71 85.0126 237.307 85.0126 236.766Z" fill="#4366A2"/>
<path d="M0.802734 62.2087H11.1421V86.2H11.3097C13.0702 81.0243 16.7169 69.7572 19.2179 62.2087H30.9824L21.677 83.5358L31.3317 117.282H19.7908L14.3138 94.0537L11.1421 101.075V117.268H0.802734V62.1948V62.2087Z" fill="#4366A2"/>
<path d="M45.6389 62.209V117.282H34.9922V62.209H45.6389Z" fill="#4366A2"/>
<path d="M53.1702 117.282V62.209H64.9627C66.7232 68.9249 72.284 93.8736 72.7172 96.288H72.9686C72.3818 88.9616 72.0046 78.9432 72.0046 71.256V62.209H81.9108V117.282H70.0066C68.8609 112.037 62.797 83.55 62.4337 81.7878H62.1403C62.5594 88.2678 62.8808 99.2158 62.8808 107.874V117.282H53.1562H53.1702Z" fill="#4366A2"/>
<path d="M116.8 117.282H108.78C108.528 116.325 108.361 114.354 108.277 113.202C106.516 117.074 102.968 118.101 99.5304 118.101C90.8956 118.101 88.4785 111.718 88.4785 102.726V76.82C88.4785 68.3697 91.9994 61.3901 102.576 61.3901C115.347 61.3901 116.632 70.6176 116.632 76.1679V78.6517H105.902V75.6267C105.902 72.9625 105.58 70.4788 102.618 70.4788C100.173 70.4788 99.2789 72.2549 99.2789 75.8349V104.058C99.2789 107.805 100.494 109.178 102.618 109.178C105.217 109.178 106.097 107.18 106.097 102.643V94.7476H102.423V85.8116H116.8V117.282Z" fill="#4366A2"/>
<path d="M0.802734 122.222H14.5792C26.7349 122.222 31.1501 128.105 31.1501 141.134V157.105C31.1501 168.942 28.2439 177.447 15.0403 177.447H0.802734V122.222ZM11.9944 168.636H14.1461C18.7429 168.636 19.679 165.584 19.679 158.798V139.775C19.679 133.725 18.6031 131.102 14.1041 131.102H11.9944V168.636Z" fill="#8D9ACE"/>
<path d="M68.4546 139.886V159.589C68.4546 172.688 63.1732 178.322 52.5125 178.322C42.4386 178.322 37.4785 172.563 37.4785 159.603V139.594C37.4785 126.884 43.4865 121.348 53.0155 121.348C62.5444 121.348 68.4546 126.953 68.4546 139.872V139.886ZM48.8797 138.901V160.616C48.8797 166.389 50.0674 169.067 52.9177 169.067C55.768 169.067 57.0115 166.611 57.0115 160.575V138.845C57.0115 133.17 56.0195 130.686 52.8897 130.686C50.1232 130.686 48.8658 133.114 48.8658 138.901H48.8797Z" fill="#8D9ACE"/>
<path d="M106.111 159.825C106.111 151.277 106.208 139.316 106.348 132.559H106.041C104.769 143.715 102.352 165.236 100.606 177.433H91.2443C89.8471 164.751 87.4718 142.938 86.2283 132.42H85.865C86.0327 138.9 86.2982 150.695 86.2982 160.213V177.433H76.2383V122.208H92.1944C93.7313 132.947 95.408 146.74 96.0787 154.288H96.3162C97.2244 146.24 99.1246 134.543 100.927 122.208H116.799V177.433H106.111V159.811V159.825Z" fill="#8D9ACE"/>
<path d="M116.77 39.1748H78.0957V20.0817L116.77 0.905273V39.1748Z" fill="#8D9ACE"/>
<path d="M78.1239 0.905273L39.4492 20.0817V39.1748H78.1239H116.799V20.0678L78.1239 0.905273Z" fill="#4366A2"/>
<path d="M39.4495 0.918945L0.802734 20.0815V39.1746H39.4495H78.0963V20.0815L39.4495 0.918945Z" fill="#8D9ACE"/>
<path d="M0.802734 39.1746H39.4495V20.0815L0.802734 0.918945V39.1746Z" fill="#4366A2"/>
</svg>
