<svg width="80" height="124" viewBox="0 0 80 124" fill="none" xmlns="http://www.w3.org/2000/svg">
<path d="M0 42.5725H7.13075V59.2335H7.24638C8.46053 55.6392 10.9756 47.8146 12.7004 42.5725H20.8141L14.3964 57.3833L21.055 80.8184H13.0955L9.31818 64.6875L7.13075 69.5634V80.8088H0V42.5629V42.5725Z" fill="white"/>
<path d="M30.9248 42.5725V80.8184H23.582V42.5725H30.9248Z" fill="white"/>
<path d="M36.1171 80.8184V42.5725H44.25C45.4641 47.2364 49.2993 64.5622 49.598 66.2389H49.7715C49.3668 61.151 49.1066 54.1937 49.1066 48.8553V42.5725H55.9386V80.8184H47.7286C46.9385 77.176 42.7564 57.3929 42.5058 56.1691H42.3035C42.5925 60.6692 42.8142 68.2722 42.8142 74.2851V80.8184H36.1074H36.1171Z" fill="white"/>
<path d="M79.9992 80.8184H74.4681C74.2947 80.1535 74.179 78.7852 74.1212 77.9854C72.9071 80.6739 70.4595 81.387 68.089 81.387C62.1338 81.387 60.4668 76.9543 60.4668 70.7101V52.7194C60.4668 46.851 62.8951 42.004 70.1896 42.004C78.9971 42.004 79.8836 48.412 79.8836 52.2665V53.9914H72.4831V51.8907C72.4831 50.0405 72.2614 48.3157 70.2186 48.3157C68.5323 48.3157 67.9155 49.5491 67.9155 52.0352V71.6352C67.9155 74.2369 68.7539 75.1909 70.2186 75.1909C72.0109 75.1909 72.618 73.8033 72.618 70.6523V65.1693H70.0837V58.9636H79.9992V80.8184Z" fill="white"/>
<path d="M0 84.2489H9.50127C17.8847 84.2489 20.9297 88.3346 20.9297 97.383V108.474C20.9297 116.694 18.9254 122.601 9.81925 122.601H0V84.2489ZM7.71857 116.482H9.20255C12.3728 116.482 13.0185 114.362 13.0185 109.65V96.4386C13.0185 92.2373 12.2765 90.416 9.17361 90.416H7.71857V116.482Z" fill="white"/>
<path d="M46.6602 96.5157V110.199C46.6602 119.296 43.0178 123.208 35.6654 123.208C28.7177 123.208 25.2969 119.209 25.2969 110.209V96.3134C25.2969 87.4867 29.4404 83.6418 36.0123 83.6418C42.5841 83.6418 46.6602 87.5349 46.6602 96.5061V96.5157ZM33.16 95.8316V110.912C33.16 114.921 33.9791 116.781 35.9448 116.781C37.9106 116.781 38.7682 115.075 38.7682 110.883V95.793C38.7682 91.8518 38.0841 90.127 35.9256 90.127C34.0176 90.127 33.1503 91.8133 33.1503 95.8316H33.16Z" fill="white"/>
<path d="M72.6275 110.363C72.6275 104.427 72.695 96.1206 72.7913 91.4278H72.5793C71.7024 99.1753 70.0354 114.121 68.8309 122.591H62.3746C61.411 113.784 59.7729 98.6357 58.9152 91.3315H58.6647C58.7803 95.8316 58.9635 104.022 58.9635 110.633V122.591H52.0254V84.2393H63.0299C64.0899 91.6976 65.2462 101.276 65.7088 106.518H65.8726C66.4989 100.929 67.8094 92.8058 69.0525 84.2393H79.9991V122.591H72.6275V110.353V110.363Z" fill="white"/>
<path d="M79.9815 26.5765H53.3086V13.3172L79.9815 0V26.5765Z" fill="white"/>
<path d="M53.3272 0L26.6543 13.3172V26.5765H53.3272H80V13.3075L53.3272 0Z" fill="white"/>
<path d="M26.6536 0.00979614L0 13.3173V26.5767H26.6536H53.3072V13.3173L26.6536 0.00979614Z" fill="white"/>
<path d="M0 26.5767H26.6536V13.3173L0 0.00979614V26.5767Z" fill="white"/>
</svg>
