<svg width="61" height="66" viewBox="0 0 61 66" fill="none" xmlns="http://www.w3.org/2000/svg">
<path d="M32.5851 0.888566C31.4616 0.328997 30.1406 0.329219 29.0173 0.889165L3.01237 13.8521C1.65484 14.5288 0.796875 15.9152 0.796875 17.432V48.1797C0.796875 49.6971 1.6554 51.0837 3.0136 51.7602L30.5578 65.4787L30.6752 65.5457C30.7548 65.5827 30.8468 65.5815 30.9253 65.5424L58.581 51.7604C59.9387 51.0838 60.7969 49.6974 60.7969 48.1804V17.4162C60.7969 15.8989 59.9384 14.5122 58.5802 13.8357L32.5851 0.888566Z" fill="white"/>
<path d="M31.0009 20C28.7565 19.9995 26.5502 20.5801 24.5967 21.6853C22.6432 22.7905 21.0092 24.3826 19.8536 26.3066C18.698 28.2307 18.0602 30.4212 18.0024 32.6648C17.9445 34.9085 18.4685 37.1289 19.5234 39.11L18.1046 43.3662C17.9871 43.7186 17.9701 44.0968 18.0554 44.4583C18.1407 44.8199 18.325 45.1505 18.5877 45.4132C18.8504 45.6759 19.181 45.8602 19.5425 45.9455C19.9041 46.0308 20.2822 46.0138 20.6346 45.8962L24.8909 44.4775C26.6343 45.4048 28.5662 45.9228 30.5397 45.992C32.5132 46.0613 34.4765 45.68 36.2807 44.8772C38.0849 44.0743 39.6825 42.871 40.9521 41.3586C42.2218 39.8462 43.1303 38.0644 43.6085 36.1484C44.0868 34.2325 44.1223 32.2328 43.7123 30.301C43.3023 28.3693 42.4577 26.5564 41.2424 24.9999C40.0272 23.4434 38.4733 22.1842 36.6988 21.3178C34.9242 20.4515 32.9756 20.0008 31.0009 20ZM32.0009 36H27.0009C26.7357 36 26.4813 35.8946 26.2938 35.7071C26.1062 35.5196 26.0009 35.2652 26.0009 35C26.0009 34.7348 26.1062 34.4804 26.2938 34.2929C26.4813 34.1054 26.7357 34 27.0009 34H32.0009C32.2661 34 32.5205 34.1054 32.708 34.2929C32.8955 34.4804 33.0009 34.7348 33.0009 35C33.0009 35.2652 32.8955 35.5196 32.708 35.7071C32.5205 35.8946 32.2661 36 32.0009 36ZM35.0009 32H27.0009C26.7357 32 26.4813 31.8946 26.2938 31.7071C26.1062 31.5196 26.0009 31.2652 26.0009 31C26.0009 30.7348 26.1062 30.4804 26.2938 30.2929C26.4813 30.1054 26.7357 30 27.0009 30H35.0009C35.2661 30 35.5205 30.1054 35.708 30.2929C35.8955 30.4804 36.0009 30.7348 36.0009 31C36.0009 31.2652 35.8955 31.5196 35.708 31.7071C35.5205 31.8946 35.2661 32 35.0009 32Z" fill="#4366A2"/>
</svg>
