<svg width="32" height="32" viewBox="0 0 32 32" fill="none" xmlns="http://www.w3.org/2000/svg">
<path d="M11 8.00023C11 7.05415 11.2683 6.12747 11.774 5.32783C12.2796 4.52819 13.0017 3.88841 13.8564 3.48281C14.7111 3.07721 15.6634 2.92243 16.6026 3.03645C17.5418 3.15047 18.4293 3.52861 19.1622 4.12695C19.895 4.72529 20.4431 5.51926 20.7427 6.41666C21.0423 7.31405 21.0811 8.27803 20.8547 9.19662C20.6283 10.1152 20.1459 10.9507 19.4636 11.6061C18.7812 12.2614 17.927 12.7098 17 12.899V22.0002C17 22.2654 16.8946 22.5198 16.7071 22.7073C16.5196 22.8949 16.2652 23.0002 16 23.0002C15.7348 23.0002 15.4804 22.8949 15.2929 22.7073C15.1054 22.5198 15 22.2654 15 22.0002V12.899C13.8714 12.6674 12.8572 12.0536 12.1285 11.1612C11.3998 10.2688 11.0012 9.15236 11 8.00023ZM27.25 18.324C25.7175 17.4565 23.61 16.7902 21.1537 16.3965C21.0238 16.376 20.8911 16.3812 20.7632 16.412C20.6354 16.4428 20.5148 16.4984 20.4084 16.5758C20.302 16.6531 20.2119 16.7507 20.1432 16.8629C20.0746 16.9751 20.0286 17.0997 20.0081 17.2296C19.9876 17.3595 19.9929 17.4922 20.0236 17.6201C20.0544 17.748 20.1101 17.8686 20.1874 17.975C20.2648 18.0813 20.3623 18.1714 20.4745 18.2401C20.5867 18.3088 20.7113 18.3547 20.8412 18.3752C23.0337 18.7277 24.9662 19.329 26.2687 20.069C27.375 20.6877 28 21.3927 28 22.0002C28 23.6702 23.435 26.0002 16 26.0002C8.565 26.0002 4 23.6702 4 22.0002C4 21.3927 4.625 20.6877 5.73125 20.064C7.03875 19.324 8.96625 18.7227 11.1587 18.3702C11.2914 18.3529 11.4193 18.3091 11.5347 18.2415C11.6502 18.1738 11.7509 18.0837 11.8309 17.9764C11.9109 17.8691 11.9685 17.7469 12.0004 17.6169C12.0323 17.487 12.0378 17.352 12.0165 17.2198C11.9953 17.0877 11.9477 16.9612 11.8767 16.8478C11.8057 16.7344 11.7126 16.6364 11.603 16.5596C11.4934 16.4829 11.3695 16.4289 11.2387 16.4008C11.1078 16.3728 10.9727 16.3713 10.8413 16.3965C8.385 16.7902 6.2775 17.4565 4.745 18.324C2.47625 19.609 2 21.0327 2 22.0002C2 25.8977 9.21375 28.0002 16 28.0002C22.7863 28.0002 30 25.8977 30 22.0002C30 21.0327 29.5238 19.609 27.25 18.324Z" fill="white"/>
</svg>
