<svg width="113" height="30" viewBox="0 0 113 30" fill="none" xmlns="http://www.w3.org/2000/svg">
<g clip-path="url(#clip0_453_761)">
<path d="M16.2504 23.5996C16.2504 23.5996 16.2504 9.74961 16.2504 6.39961H13.0004C13.0004 9.64961 13.0004 16.3996 13.0004 20.2996H6.90044C4.90044 20.2996 3.95044 18.3496 5.00044 16.4996C6.40044 14.0496 9.70044 8.74961 11.0504 6.34961H7.35044L2.00044 15.3496C-0.299557 19.1496 1.85044 23.5996 6.80044 23.5996H16.2504Z" fill="#4F65AD"/>
<path d="M105.251 6.4502C100.701 6.4502 100.451 6.4502 95.8008 6.4502C95.8008 6.4502 95.8008 20.3002 95.8008 23.6502H99.0508C99.0508 20.4002 99.0508 13.6502 99.0508 9.7502H105.201C107.201 9.7502 108.151 11.7002 107.101 13.5502C105.701 16.0002 102.401 21.3002 101.001 23.7002H104.701L110.101 14.7502C112.351 10.9002 110.201 6.4502 105.251 6.4502Z" fill="#4F65AD"/>
<path d="M29.7508 6.25C26.9508 6.25 24.8008 7.7 24.2008 10.7L22.3008 20C22.3008 16 22.3008 9.65 22.3008 6.4C21.3008 6.4 19.9508 6.4 19.0508 6.4C19.0508 12.05 19.0508 18 19.0508 23.6C21.0508 23.6 20.2508 23.6 22.3008 23.6H25.0008C25.4508 21.4 26.6008 15.75 27.2508 12.3C27.6008 10.3 28.5508 9.35 30.1008 9.5C31.5508 9.65 32.3508 10.7 32.3508 12.65C32.3508 14.85 32.3508 15.9 32.3508 18.15C32.3508 19.95 32.3508 21.8 32.3508 23.65H35.5508L35.5008 11.8C35.5008 8.3 32.6508 6.25 29.7508 6.25Z" fill="#4F65AD"/>
<path d="M36.6992 6.2998V9.5498C38.0492 9.7498 38.7992 10.7498 38.7992 12.6498C38.7992 14.8498 38.7992 15.8998 38.7992 18.1498C38.7992 19.9498 38.7992 21.7998 38.7992 23.6498H41.9992L41.9492 11.7998C41.9492 8.4998 39.3992 6.4998 36.6992 6.2998Z" fill="#4F65AD"/>
<path d="M39.95 0H36.75V0.75C36.75 4 39.3 6.05 42.05 6.25V2.95C40.75 2.8 40 1.8 39.95 0Z" fill="#4F65AD"/>
<path d="M57.25 30.0502C58.25 30.0502 59.55 30.0502 60.4 30.0502C60.4 24.5502 60.4 11.9002 60.4 6.4502C58.45 6.4502 59.25 6.4502 57.25 6.4502C57.25 6.4502 57.25 25.1502 57.25 30.0502Z" fill="#4F65AD"/>
<path d="M51.6 18.4502C51.55 18.7502 51.45 19.0502 51.25 19.3502C50.5 20.5002 49 20.8002 47.85 20.1002C46.75 19.4002 46.4 18.0502 47.05 16.8502C47.1 16.8002 52.65 8.3502 53.9 6.4502H50.15C50.15 6.4502 44.45 15.1002 44.35 15.2502C43.8 16.1002 43.5 17.1002 43.5 18.2002C43.5 21.3002 46.05 23.8002 49.1 23.8002C51.5 23.8002 53.6 22.2502 54.4 20.1002C54.5 19.8502 54.6 19.5502 54.65 19.2502C54.65 19.2002 57.25 6.4502 57.25 6.4502H53.9C53.5 8.5502 51.65 18.1502 51.6 18.4502Z" fill="#4F65AD"/>
<path d="M73.7492 6.4502C73.0992 6.4502 68.6492 6.4502 68.6492 6.4502C67.3992 6.4502 66.0992 6.4502 63.7492 6.4502V9.6502H66.5992C66.4992 9.8502 63.8492 14.2502 63.3492 15.0502C61.8492 17.5002 62.4492 20.2502 64.1992 21.9002C65.1992 22.9502 66.6492 23.6002 68.3992 23.6002C69.1492 23.6002 73.4992 23.6502 73.4992 23.6502C73.4992 23.6502 73.5492 23.6002 73.5492 23.5502C73.7492 23.5502 73.6992 23.5502 73.5492 23.5502C73.8992 23.0502 77.3492 17.2002 78.6992 15.0002C81.0492 11.1002 78.2992 6.5002 73.7492 6.4502ZM75.8992 13.5002C74.9992 15.1002 73.2992 17.9002 71.8992 20.3502C71.8992 20.3502 68.2492 20.3502 68.1492 20.3502C66.0992 20.3502 65.2492 18.3502 66.2992 16.4502C66.4992 16.0502 67.4992 14.3002 67.7992 13.8502C67.7992 13.8502 69.3992 11.0002 70.2492 9.6002C70.2492 9.6002 73.8992 9.6002 73.9992 9.6002C75.3492 9.6002 76.4492 10.7002 76.4492 12.0502C76.2992 12.7002 75.9492 13.3502 75.8992 13.5002Z" fill="#4F65AD"/>
<path d="M85.1492 12.6002C85.1492 12.5002 85.1492 12.4502 85.1992 12.4002C85.1992 12.4002 85.1992 12.4002 85.1492 12.4002V9.7002H87.5492C88.9492 9.7002 89.7992 10.6502 89.8492 11.8502H93.3492C93.4992 9.0002 91.3992 6.4502 87.6492 6.4502H81.8992C81.8992 6.4502 81.8992 15.1002 81.8992 20.3502H78.4492V23.6002H93.3492V20.3502H85.0992V12.6002H85.1492Z" fill="#4F65AD"/>
</g>
<defs>
<clipPath id="clip0_453_761">
<rect width="112.7" height="30" fill="white"/>
</clipPath>
</defs>
</svg>
