<svg width="16" height="16" viewBox="0 0 16 16" fill="none" xmlns="http://www.w3.org/2000/svg">
<g opacity="0.5">
<path fill-rule="evenodd" clip-rule="evenodd" d="M9.5 2.5C9.22386 2.5 9 2.72386 9 3C9 3.27614 9.22386 3.5 9.5 3.5C9.77614 3.5 10 3.27614 10 3C10 2.72386 9.77614 2.5 9.5 2.5ZM7 3C7 1.61929 8.11929 0.5 9.5 0.5C10.8807 0.5 12 1.61929 12 3C12 4.38071 10.8807 5.5 9.5 5.5C8.11929 5.5 7 4.38071 7 3Z" fill="white"/>
<path fill-rule="evenodd" clip-rule="evenodd" d="M3.68463 8.79134L3.68862 8.78765L3.71137 8.76685C3.73271 8.74751 3.76611 8.71762 3.81035 8.67916C3.89899 8.60211 4.03027 8.49145 4.1946 8.3628C4.52651 8.10293 4.97776 7.78183 5.47402 7.51468C5.97951 7.24256 6.47375 7.05813 6.90187 7.01294C7.3047 6.97041 7.60113 7.05199 7.84444 7.26322L7.84526 7.26393C8.0015 7.39926 8.17005 7.57192 8.35808 7.76455C9.23651 8.66443 10.5402 9.99995 13 9.99995C13.5523 9.99995 14 9.55223 14 8.99995C14 8.44766 13.5523 7.99995 13 7.99995C11.4486 7.99995 10.8104 7.36318 9.97886 6.53351C9.73117 6.28638 9.46632 6.02214 9.15508 5.75251C8.3985 5.09596 7.50763 4.93786 6.69188 5.02399C5.90125 5.10746 5.1455 5.42015 4.52599 5.75365C3.89724 6.09212 3.34849 6.48517 2.96166 6.78804C2.76661 6.94074 2.60883 7.07361 2.49825 7.16973C2.44288 7.21785 2.39913 7.25697 2.36823 7.28498L2.33159 7.31847L2.32074 7.32853L2.31724 7.33181L2.31597 7.333C2.31575 7.33321 2.31502 7.33388 2.99981 8.06224L2.31502 7.33388C1.91265 7.71219 1.89314 8.34505 2.27144 8.74743C2.64963 9.14968 3.28224 9.1693 3.68463 8.79134Z" fill="white"/>
<path fill-rule="evenodd" clip-rule="evenodd" d="M6.03206 8.52331C6.35308 8.07391 6.97763 7.96983 7.42704 8.29085L10.0808 10.1865C10.3436 10.3742 10.4995 10.6773 10.4995 11.0002V14.5002C10.4995 15.0525 10.0518 15.5002 9.49953 15.5002C8.94725 15.5002 8.49953 15.0525 8.49953 14.5002V11.5148L6.26452 9.91829C5.81512 9.59727 5.71104 8.97272 6.03206 8.52331Z" fill="white"/>
<path fill-rule="evenodd" clip-rule="evenodd" d="M8.49463 5.31366C9.00111 5.53389 9.23316 6.12299 9.01294 6.62947L5.41731 14.8988C5.19709 15.4053 4.60798 15.6374 4.1015 15.4172C3.59503 15.1969 3.36297 14.6078 3.58319 14.1013L7.17882 5.83197C7.39904 5.3255 7.98815 5.09344 8.49463 5.31366Z" fill="white"/>
</g>
</svg>
