<svg width="24" height="24" viewBox="0 0 24 24" fill="none" xmlns="http://www.w3.org/2000/svg">
<path d="M21.4581 2.45532C21.3419 2.35498 21.2005 2.28825 21.0492 2.26231C20.8979 2.23637 20.7423 2.25222 20.5994 2.30814L1.59998 9.74345C1.33071 9.84815 1.10275 10.0375 0.950407 10.283C0.798064 10.5284 0.729587 10.8168 0.755286 11.1045C0.780984 11.3923 0.899467 11.6639 1.0929 11.8785C1.28633 12.0931 1.54423 12.2391 1.82779 12.2944L6.7506 13.2609V18.75C6.74963 19.049 6.83848 19.3414 7.00564 19.5893C7.1728 19.8372 7.41056 20.0291 7.6881 20.1403C7.96522 20.2535 8.26997 20.2806 8.56274 20.2183C8.8555 20.1559 9.12272 20.0069 9.32967 19.7906L11.7034 17.3288L15.4694 20.625C15.7411 20.866 16.0915 20.9994 16.4547 21C16.6138 20.9999 16.772 20.9749 16.9234 20.9259C17.1709 20.8474 17.3934 20.7055 17.5689 20.5142C17.7444 20.3229 17.8668 20.0889 17.9237 19.8356L21.729 3.28126C21.7631 3.13196 21.7558 2.97622 21.7081 2.83072C21.6604 2.68522 21.574 2.55545 21.4581 2.45532ZM16.4565 19.5L8.70529 12.7031L19.8615 4.7072L16.4565 19.5Z" fill="black"/>
</svg>
