<svg width="65" height="100" viewBox="0 0 65 100" fill="none" xmlns="http://www.w3.org/2000/svg">
<path d="M0.589844 35.1753H6.32243V48.5694H6.41538C7.39147 45.6799 9.41337 39.3895 10.8 35.1753H17.3228L12.1635 47.082L17.5165 65.9221H11.1177L8.08095 52.954L6.32243 56.8739V65.9144H0.589844V35.1675V35.1753Z" fill="#4F65AD"/>
<path d="M25.4499 35.1753V65.9221H19.5469V35.1753H25.4499Z" fill="#4F65AD"/>
<path d="M29.6249 65.9221V35.1753H36.1632C37.1393 38.9247 40.2225 52.8533 40.4626 54.2013H40.6021C40.2767 50.111 40.0675 44.5179 40.0675 40.2262V35.1753H45.56V65.9221H38.9598C38.3245 62.9938 34.9624 47.0898 34.761 46.1059H34.5983C34.8307 49.7237 35.0089 55.8358 35.0089 60.6698V65.9221H29.6172H29.6249Z" fill="#4F65AD"/>
<path d="M64.9038 65.9221H60.4572C60.3177 65.3876 60.2248 64.2875 60.1783 63.6446C59.2022 65.8059 57.2345 66.3792 55.3288 66.3792C50.5413 66.3792 49.2012 62.8156 49.2012 57.7958V43.3326C49.2012 38.6148 51.1533 34.7182 57.0176 34.7182C64.0981 34.7182 64.8108 39.8698 64.8108 42.9685V44.3552H58.8613V42.6664C58.8613 41.179 58.6832 39.7923 57.0409 39.7923C55.6852 39.7923 55.1894 40.7839 55.1894 42.7826V58.5395C55.1894 60.6311 55.8634 61.398 57.0409 61.398C58.4818 61.398 58.9698 60.2825 58.9698 57.7493V53.3414H56.9324V48.3525H64.9038V65.9221Z" fill="#4F65AD"/>
<path d="M0.589844 68.6799H8.22814C14.9678 68.6799 17.4158 71.9646 17.4158 79.2387V88.1552C17.4158 94.7632 15.8044 99.5119 8.48377 99.5119H0.589844V68.6799ZM6.79499 94.5928H7.98799C10.5367 94.5928 11.0557 92.8885 11.0557 89.1003V78.4796C11.0557 75.102 10.4592 73.6378 7.96473 73.6378H6.79499V94.5928Z" fill="#9AA3D3"/>
<path d="M38.1003 78.5415V89.5419C38.1003 96.8548 35.172 100 29.2613 100C23.6759 100 20.9258 96.7851 20.9258 89.5497V78.3789C20.9258 71.2828 24.2569 68.1919 29.5402 68.1919C34.8234 68.1919 38.1003 71.3216 38.1003 78.5338V78.5415ZM27.2471 77.9915V90.1152C27.2471 93.3378 27.9056 94.8329 29.4859 94.8329C31.0663 94.8329 31.7557 93.4617 31.7557 90.0919V77.9605C31.7557 74.7921 31.2057 73.4055 29.4704 73.4055C27.9366 73.4055 27.2394 74.7611 27.2394 77.9915H27.2471Z" fill="#9AA3D3"/>
<path d="M58.9766 89.6736C58.9766 84.9016 59.0308 78.2239 59.1083 74.4512H58.9378C58.2329 80.6796 56.8927 92.6948 55.9244 99.5042H50.7341C49.9594 92.4237 48.6424 80.2458 47.953 74.3738H47.7516C47.8445 77.9915 47.9917 84.5762 47.9917 89.8905V99.5042H42.4141V68.6722H51.2608C52.113 74.6682 53.0426 82.3684 53.4145 86.5826H53.5461C54.0497 82.0895 55.1032 75.559 56.1026 68.6722H64.9028V99.5042H58.9766V89.6658V89.6736Z" fill="#9AA3D3"/>
<path d="M64.8883 22.3157H43.4453V11.6562L64.8883 0.950195V22.3157Z" fill="#9AA3D3"/>
<path d="M43.4605 0.950195L22.0176 11.6562V22.3157H43.4605H64.9035V11.6484L43.4605 0.950195Z" fill="#4F65AD"/>
<path d="M22.0173 0.958084L0.589844 11.6563V22.3158H22.0173H43.4448V11.6563L22.0173 0.958084Z" fill="#9AA3D3"/>
<path d="M0.589844 22.3158H22.0173V11.6563L0.589844 0.958084V22.3158Z" fill="#4F65AD"/>
</svg>
