<svg width="40" height="40" viewBox="0 0 40 40" fill="none" xmlns="http://www.w3.org/2000/svg">
<g clip-path="url(#clip0_453_778)">
<path d="M11.25 6.23118V33.7687C11.2541 33.9884 11.316 34.2032 11.4296 34.3914C11.5432 34.5795 11.7043 34.7344 11.8969 34.8405C12.0894 34.9465 12.3065 34.9998 12.5262 34.9952C12.7459 34.9905 12.9606 34.928 13.1484 34.814L35.6609 21.0452C35.8408 20.9364 35.9895 20.783 36.0927 20.5999C36.1959 20.4168 36.2501 20.2101 36.2501 19.9999C36.2501 19.7897 36.1959 19.5831 36.0927 19.4C35.9895 19.2169 35.8408 19.0635 35.6609 18.9546L13.1484 5.18587C12.9606 5.07182 12.7459 5.00932 12.5262 5.00467C12.3065 5.00003 12.0894 5.0534 11.8969 5.15941C11.7043 5.26542 11.5432 5.42032 11.4296 5.60848C11.316 5.79665 11.2541 6.01144 11.25 6.23118Z" stroke="white" stroke-width="2" stroke-linecap="round" stroke-linejoin="round"/>
</g>
<defs>
<clipPath id="clip0_453_778">
<rect width="40" height="40" fill="white"/>
</clipPath>
</defs>
</svg>
